<svg width="201" height="54" viewBox="0 0 201 54" fill="none" xmlns="http://www.w3.org/2000/svg">
<path d="M51.388 19.66V24.772H59.632V29.524H51.388V35.068H60.712V40H45.232V14.728H60.712V19.66H51.388ZM63.4846 29.92C63.4846 27.856 63.8686 26.044 64.6366 24.484C65.4286 22.924 66.4966 21.724 67.8406 20.884C69.1846 20.044 70.6846 19.624 72.3406 19.624C73.7566 19.624 74.9926 19.912 76.0486 20.488C77.1286 21.064 77.9566 21.82 78.5326 22.756V19.912H84.6886V40H78.5326V37.156C77.9326 38.092 77.0926 38.848 76.0126 39.424C74.9566 40 73.7206 40.288 72.3046 40.288C70.6726 40.288 69.1846 39.868 67.8406 39.028C66.4966 38.164 65.4286 36.952 64.6366 35.392C63.8686 33.808 63.4846 31.984 63.4846 29.92ZM78.5326 29.956C78.5326 28.42 78.1006 27.208 77.2366 26.32C76.3966 25.432 75.3646 24.988 74.1406 24.988C72.9166 24.988 71.8726 25.432 71.0086 26.32C70.1686 27.184 69.7486 28.384 69.7486 29.92C69.7486 31.456 70.1686 32.68 71.0086 33.592C71.8726 34.48 72.9166 34.924 74.1406 34.924C75.3646 34.924 76.3966 34.48 77.2366 33.592C78.1006 32.704 78.5326 31.492 78.5326 29.956ZM97.3142 40.288C95.5622 40.288 94.0022 39.988 92.6342 39.388C91.2662 38.788 90.1862 37.972 89.3942 36.94C88.6022 35.884 88.1582 34.708 88.0622 33.412H94.1462C94.2182 34.108 94.5422 34.672 95.1182 35.104C95.6942 35.536 96.4022 35.752 97.2422 35.752C98.0102 35.752 98.5982 35.608 99.0062 35.32C99.4382 35.008 99.6542 34.612 99.6542 34.132C99.6542 33.556 99.3542 33.136 98.7542 32.872C98.1542 32.584 97.1822 32.272 95.8382 31.936C94.3982 31.6 93.1982 31.252 92.2382 30.892C91.2782 30.508 90.4502 29.92 89.7542 29.128C89.0582 28.312 88.7102 27.22 88.7102 25.852C88.7102 24.7 89.0222 23.656 89.6462 22.72C90.2942 21.76 91.2302 21.004 92.4542 20.452C93.7022 19.9 95.1782 19.624 96.8822 19.624C99.4022 19.624 101.382 20.248 102.822 21.496C104.286 22.744 105.126 24.4 105.342 26.464H99.6542C99.5582 25.768 99.2462 25.216 98.7182 24.808C98.2142 24.4 97.5422 24.196 96.7022 24.196C95.9822 24.196 95.4302 24.34 95.0462 24.628C94.6622 24.892 94.4702 25.264 94.4702 25.744C94.4702 26.32 94.7702 26.752 95.3702 27.04C95.9942 27.328 96.9542 27.616 98.2502 27.904C99.7382 28.288 100.95 28.672 101.886 29.056C102.822 29.416 103.638 30.016 104.334 30.856C105.054 31.672 105.426 32.776 105.45 34.168C105.45 35.344 105.114 36.4 104.442 37.336C103.794 38.248 102.846 38.968 101.598 39.496C100.374 40.024 98.9462 40.288 97.3142 40.288ZM129.736 19.912L117.136 49.54H110.512L115.12 39.316L106.948 19.912H113.824L118.468 32.476L123.076 19.912H129.736ZM139.594 19.624C141.01 19.624 142.246 19.912 143.302 20.488C144.382 21.064 145.21 21.82 145.786 22.756V19.912H151.942V39.964C151.942 41.812 151.57 43.48 150.826 44.968C150.106 46.48 148.99 47.68 147.478 48.568C145.99 49.456 144.13 49.9 141.898 49.9C138.922 49.9 136.51 49.192 134.662 47.776C132.814 46.384 131.758 44.488 131.494 42.088H137.578C137.77 42.856 138.226 43.456 138.946 43.888C139.666 44.344 140.554 44.572 141.61 44.572C142.882 44.572 143.89 44.2 144.634 43.456C145.402 42.736 145.786 41.572 145.786 39.964V37.12C145.186 38.056 144.358 38.824 143.302 39.424C142.246 40 141.01 40.288 139.594 40.288C137.938 40.288 136.438 39.868 135.094 39.028C133.75 38.164 132.682 36.952 131.89 35.392C131.122 33.808 130.738 31.984 130.738 29.92C130.738 27.856 131.122 26.044 131.89 24.484C132.682 22.924 133.75 21.724 135.094 20.884C136.438 20.044 137.938 19.624 139.594 19.624ZM145.786 29.956C145.786 28.42 145.354 27.208 144.49 26.32C143.65 25.432 142.618 24.988 141.394 24.988C140.17 24.988 139.126 25.432 138.262 26.32C137.422 27.184 137.002 28.384 137.002 29.92C137.002 31.456 137.422 32.68 138.262 33.592C139.126 34.48 140.17 34.924 141.394 34.924C142.618 34.924 143.65 34.48 144.49 33.592C145.354 32.704 145.786 31.492 145.786 29.956ZM175.332 29.632C175.332 30.208 175.296 30.808 175.224 31.432H161.292C161.388 32.68 161.784 33.64 162.48 34.312C163.2 34.96 164.076 35.284 165.108 35.284C166.644 35.284 167.712 34.636 168.312 33.34H174.864C174.528 34.66 173.916 35.848 173.028 36.904C172.164 37.96 171.072 38.788 169.752 39.388C168.432 39.988 166.956 40.288 165.324 40.288C163.356 40.288 161.604 39.868 160.068 39.028C158.532 38.188 157.332 36.988 156.468 35.428C155.604 33.868 155.172 32.044 155.172 29.956C155.172 27.868 155.592 26.044 156.432 24.484C157.296 22.924 158.496 21.724 160.032 20.884C161.568 20.044 163.332 19.624 165.324 19.624C167.268 19.624 168.996 20.032 170.508 20.848C172.02 21.664 173.196 22.828 174.036 24.34C174.9 25.852 175.332 27.616 175.332 29.632ZM169.032 28.012C169.032 26.956 168.672 26.116 167.952 25.492C167.232 24.868 166.332 24.556 165.252 24.556C164.22 24.556 163.344 24.856 162.624 25.456C161.928 26.056 161.496 26.908 161.328 28.012H169.032ZM190.82 19.696C193.172 19.696 195.044 20.464 196.436 22C197.852 23.512 198.56 25.6 198.56 28.264V40H192.44V29.092C192.44 27.748 192.092 26.704 191.396 25.96C190.7 25.216 189.764 24.844 188.588 24.844C187.412 24.844 186.476 25.216 185.78 25.96C185.084 26.704 184.736 27.748 184.736 29.092V40H178.58V19.912H184.736V22.576C185.36 21.688 186.2 20.992 187.256 20.488C188.312 19.96 189.5 19.696 190.82 19.696Z" fill="black"/>
<path d="M0 15.7135C0 15.0497 0.12341 14.4378 0.368065 13.8757C0.61272 13.3135 0.952639 12.8162 1.38566 12.3838C1.81867 11.9514 2.3253 11.6119 2.90122 11.3676C3.4793 11.1232 4.08552 11 4.71989 11H16.0217C20.4384 11 24.2057 12.5568 27.3234 15.6703C30.4411 18.7838 32 22.5611 32 27C32 31.4108 30.4411 35.173 27.3234 38.2865C24.1775 41.4281 20.4103 43 16.0217 43H4.71989C4.08552 43 3.4793 42.8768 2.90122 42.6324C2.3253 42.3881 1.81867 42.0487 1.38566 41.6162C0.952639 41.1838 0.614885 40.68 0.368065 40.1027C0.12341 39.5254 0 38.92 0 38.2865C0 37.6227 0.12341 37.0108 0.368065 36.4486C0.61272 35.8865 0.952639 35.3892 1.38566 34.9568C1.81867 34.5243 2.3253 34.1849 2.90122 33.9405C3.4793 33.6962 4.08552 33.573 4.71989 33.573H16.0217C17.8403 33.573 19.3992 32.9243 20.6982 31.627C21.9691 30.3578 22.6035 28.8162 22.6035 27C22.6035 25.2119 21.9691 23.6551 20.6982 22.3297C19.371 21.0605 17.8122 20.427 16.0217 20.427H4.71989C4.08552 20.427 3.4793 20.3038 2.90122 20.0595C2.3253 19.8151 1.81867 19.4757 1.38566 19.0432C0.952639 18.6108 0.614885 18.107 0.368065 17.5297C0.12341 16.9524 0 16.347 0 15.7135ZM0 27C0 26.3362 0.12341 25.7243 0.368065 25.1622C0.61272 24.6 0.952639 24.1027 1.38566 23.6703C1.81867 23.2378 2.3253 22.8984 2.90122 22.6541C3.4793 22.4097 4.08552 22.2865 4.71989 22.2865H16.0217C17.2926 22.2865 18.3881 22.747 19.3126 23.6703C20.2371 24.5935 20.6982 25.7027 20.6982 27C20.6982 27.6335 20.5748 28.2389 20.3302 28.8162C20.0855 29.3935 19.7521 29.8973 19.3342 30.3297C18.9164 30.7622 18.4249 31.1016 17.862 31.3459C17.2991 31.5903 16.6863 31.7135 16.0217 31.7135H4.71989C4.08552 31.7135 3.4793 31.5903 2.90122 31.3459C2.3253 31.1016 1.81867 30.7622 1.38566 30.3297C0.952639 29.8973 0.614885 29.3935 0.368065 28.8162C0.12341 28.2389 0 27.6335 0 27Z" fill="url(#paint0_linear_390_125)"/>
<defs>
<linearGradient id="paint0_linear_390_125" x1="0" y1="27" x2="32" y2="27" gradientUnits="userSpaceOnUse">
<stop offset="6.49098e-08" stop-color="#ACCDF3"/>
<stop offset="1" stop-color="#5B699C"/>
</linearGradient>
</defs>
</svg>
